<svg id="logo" xmlns="http://www.w3.org/2000/svg" viewBox="0 0 176.16 174.36"><defs><style>.cls-1{fill:none;stroke:#fff;stroke-miterlimit:10;stroke-width:7px;}.cls-2,.cls-3{fill:#fff;}.cls-3{font-size:29px;font-family:Verdana-Bold, Verdana;font-weight:700;}</style></defs><title>LogoWhite</title><path class="cls-1" d="M1180.94,147.24h-91.85a10.69,10.69,0,0,0-10.66,10.66V224c0,6.59-2.72,11.4-11.79,11.4H1033.1a10.69,10.69,0,0,0-10.66,10.66v57.86a10.69,10.69,0,0,0,10.66,10.66h147.84a10.69,10.69,0,0,0,10.66-10.66v-146A10.69,10.69,0,0,0,1180.94,147.24Z" transform="translate(-1018.94 -143.74)"/><path class="cls-2" d="M1149.58,171.6a2.7,2.7,0,0,0-2.69,2.69v35.09c0,2.42-1.52,2.89-2.51,2.89H1129l.09,0H1125c-1.58,0-2.11-.71-2.27-1.72V202a.63.63,0,0,0-.63-.63h0a.68.68,0,0,0-.6.18l-12.79,11.9a1,1,0,0,0,0,1.16l12.79,12.79a.68.68,0,0,0,.55.19l.08,0a.63.63,0,0,0,.63-.63v-7a2,2,0,0,1,2.27-2h24.6a2.7,2.7,0,0,0,2.69-2.69v-.18h0V174.3A2.7,2.7,0,0,0,1149.58,171.6Z" transform="translate(-1018.94 -143.74)"/><text class="cls-3" transform="translate(13.76 142.25)">Accessify</text></svg>